<?xml version="1.0" standalone="no"?>
<!DOCTYPE svg PUBLIC "-//W3C//DTD SVG 20010904//EN"
 "http://www.w3.org/TR/2001/REC-SVG-20010904/DTD/svg10.dtd">
<svg version="1.0" xmlns="http://www.w3.org/2000/svg"
 width="200.000000pt" height="200.000000pt" viewBox="0 0 200.000000 200.000000"
 preserveAspectRatio="xMidYMid meet">
<metadata>
Created by potrace 1.11, written by Peter Selinger 2001-2013
</metadata>
<g transform="translate(0.000000,200.000000) scale(0.100000,-0.100000)"
fill="#000000" stroke="none">
<path d="M955 1888 c-16 -6 -86 -44 -155 -83 -406 -236 -491 -285 -498 -285
-16 0 -75 -65 -88 -96 -11 -27 -14 -114 -14 -421 0 -225 4 -403 10 -424 15
-55 55 -85 300 -221 25 -14 133 -76 240 -138 252 -146 248 -146 402 -60 62 34
121 69 131 78 9 8 17 11 17 7 0 -4 8 -1 18 7 9 8 105 65 212 126 210 120 238
141 258 187 21 45 19 819 -1 867 -17 40 -52 69 -147 122 -36 20 -72 41 -80 46
-47 30 -310 180 -314 180 -3 0 -31 16 -62 36 -72 46 -154 84 -179 83 -11 0
-33 -5 -50 -11z"/>
</g>
</svg>
